<?xml version="1.0" encoding="utf-8"?>
<!-- Generator: Adobe Illustrator 19.0.0, SVG Export Plug-In . SVG Version: 6.00 Build 0)  -->
<svg version="1.1" id="Layer_1" xmlns="http://www.w3.org/2000/svg" xmlns:xlink="http://www.w3.org/1999/xlink" x="0px" y="0px"
	 viewBox="0 0 1000 1000" style="enable-background:new 0 0 1000 1000;" xml:space="preserve">
<style type="text/css">
	.st0{fill:#5D6D97;}
	.st1{fill:#FFFFFF;}
</style>
<path id="XMLID_1_" class="st0" d="M820,1000H180C81,1000,0,919,0,820V180C0,81,81,0,180,0h640c99,0,180,81,180,180v640
	C1000,919,919,1000,820,1000z"/>
<g id="XMLID_15_">
	<path id="XMLID_17_" class="st1" d="M357.7,808.3c-12.8,0-25.8-1.2-39-3.5c-13.2-2.3-25.2-6.7-36.1-13.2
		c-10.9-6.5-19.6-15.9-26.2-28.1c-6.6-12.3-9.9-28.3-9.9-48.2c0-17.4,2-33.8,6-49.3c4-15.5,8-30.5,11.9-45.1c4-14.6,6-29.2,6-43.8
		c0-16.8-6.1-31-18.2-42.7c-12.2-11.7-32.5-18.1-61-19.2v-40.9c27.9-0.8,48-6.7,60.5-17.6c12.5-10.9,18.7-23.6,18.7-38
		c0-13.6-2-27.2-6-40.7c-4-13.5-8-27.6-11.9-42.3c-4-14.7-6-30.4-6-47.1c0-19.7,3.1-35.9,9.4-48.6c6.3-12.7,14.8-22.5,25.5-29.5
		c10.7-7,22.6-11.9,35.8-14.6c13.2-2.7,26.7-4.1,40.5-4.1h37.7v45.9h-24.2c-14.2,0-26.7,1.8-37.2,5.3c-10.6,3.6-18.8,9.5-24.7,17.8
		c-5.9,8.3-8.8,19.5-8.8,33.8c0,12.2,1.9,24.7,5.8,37.7c3.9,13,7.8,26.7,11.8,41c4,14.4,6,29.7,6,46c0,20.5-4.9,37-14.8,49.3
		c-9.9,12.4-23.9,20.7-42.1,25.1v2.5c17.6,4.2,31.5,13.1,41.6,26.7C319,536.6,324,554.6,324,577c0,16.6-2,32.5-6,47.8
		c-4,15.3-7.9,30-11.8,44c-3.9,14-5.8,27.1-5.8,39.3c0,15.9,3.4,27.7,10.2,35.4c6.8,7.6,15.6,12.7,26.4,15.1
		c10.8,2.4,22.2,3.6,34.1,3.6h24.2v46.2H357.7z"/>
	<path id="XMLID_19_" class="st1" d="M642.3,808.3h-37.7v-46.2h24.2c11.9,0,23.3-1.2,34.1-3.6c10.8-2.4,19.6-7.4,26.4-15.1
		c6.8-7.7,10.2-19.4,10.2-35.4c0-12.1-1.9-25.2-5.8-39.3c-3.9-14-7.8-28.7-11.8-44c-4-15.3-6-31.2-6-47.8c0-22.4,5.1-40.4,15.2-54.1
		c10.2-13.6,24-22.5,41.6-26.7v-2.5c-18.2-4.4-32.3-12.8-42.1-25.1c-9.9-12.4-14.8-28.8-14.8-49.3c0-16.3,2-31.7,6-46
		c4-14.3,7.9-28,11.8-41c3.9-13,5.8-25.6,5.8-37.7c0-14.2-2.9-25.5-8.8-33.8c-5.9-8.3-14.1-14.2-24.7-17.8
		c-10.6-3.6-23-5.3-37.2-5.3h-24.2v-45.9h37.7c14,0,27.6,1.4,40.7,4.1c13.1,2.7,25,7.6,35.7,14.6c10.7,7,19.2,16.9,25.5,29.5
		c6.3,12.7,9.4,28.9,9.4,48.6c0,16.8-2,32.5-6,47.1c-4,14.7-8,28.8-11.9,42.3c-4,13.5-6,27.1-6,40.7c0,14.5,6.2,27.1,18.7,38
		c12.5,10.9,32.6,16.8,60.5,17.6v40.9c-28.3,1.1-48.6,7.4-60.8,19.2c-12.3,11.7-18.4,26-18.4,42.7c0,14.7,2,29.3,6,43.8
		c4,14.6,8,29.6,11.9,45.1c4,15.5,6,32,6,49.3c0,19.9-3.3,36-9.9,48.2c-6.6,12.3-15.3,21.6-26.2,28.1c-10.9,6.5-22.9,10.9-36,13.2
		C668.4,807.1,655.3,808.3,642.3,808.3z"/>
</g>
</svg>
